<?xml version="1.0" encoding="iso-8859-1"?>
<!-- Generator: Adobe Illustrator 19.0.0, SVG Export Plug-In . SVG Version: 6.00 Build 0)  -->
<svg version="1.1" id="Layer_1" xmlns="http://www.w3.org/2000/svg" xmlns:xlink="http://www.w3.org/1999/xlink" x="0px" y="0px"
	 viewBox="0 0 512 512" style="enable-background:new 0 0 512 512;" xml:space="preserve">
<g transform="translate(1 1)">
	<g>
		<path style="fill:#FFDD09;" d="M185.576,380.831c-5.207,0-8.678-3.471-8.678-8.678v-95.458c0-5.207,3.471-8.678,8.678-8.678
			c5.207,0,8.678,3.471,8.678,8.678v95.458C194.254,377.359,190.783,380.831,185.576,380.831z"/>
		<path style="fill:#FFDD09;" d="M333.102,259.339c-5.207,0-8.678-3.471-8.678-8.678v-95.458c0-5.207,3.471-8.678,8.678-8.678
			c5.207,0,8.678,3.471,8.678,8.678v95.458C341.78,255.868,338.308,259.339,333.102,259.339z"/>
		<path style="fill:#FFDD09;" d="M315.746,276.695c-0.868,0-1.736,0-2.603,0l-95.458-26.034c-4.339-0.868-6.942-6.075-6.075-10.414
			c0.868-4.339,6.075-6.942,10.414-6.075l95.458,26.034c4.339,0.868,6.942,6.075,6.075,10.414
			C322.688,274.092,319.217,276.695,315.746,276.695z"/>
		<path style="fill:#FFDD09;" d="M159.542,224.627c-2.603,0-4.339-0.868-6.075-2.603l-78.102-86.78
			c-3.471-3.471-2.603-8.678,0.868-12.149c3.471-3.471,8.678-2.603,12.149,0.868l78.102,86.78c3.471,3.471,2.603,8.678-0.868,12.149
			C163.881,223.759,161.278,224.627,159.542,224.627z"/>
		<path style="fill:#FFDD09;" d="M81.441,294.051c-3.471,0-6.075-1.736-7.81-5.207c-1.736-4.339,0-9.546,3.471-11.281l69.424-34.712
			c4.339-1.736,9.546,0,11.281,3.471c1.736,4.339,0,9.546-3.471,11.281l-69.424,34.712
			C84.044,294.051,83.176,294.051,81.441,294.051z"/>
		<path style="fill:#FFDD09;" d="M298.39,111.814c-1.736,0-4.339-0.868-6.075-1.736L231.569,58.01
			c-3.471-3.471-4.339-8.678-0.868-12.149c3.471-3.471,8.678-4.339,12.149-0.868l60.746,52.068
			c3.471,3.471,4.339,8.678,0.868,12.149C303.597,110.946,300.993,111.814,298.39,111.814z"/>
		<path style="fill:#FFDD09;" d="M445.915,346.119c-1.736,0-3.471,0-4.339-0.868l-86.78-52.068
			c-4.339-2.603-5.207-7.81-2.603-12.149c2.603-4.339,7.81-5.207,12.149-2.603l86.78,52.068c4.339,2.603,5.207,7.81,2.603,12.149
			C451.99,344.383,448.519,346.119,445.915,346.119z"/>
		<path style="fill:#FFDD09;" d="M359.136,111.814c-2.603,0-5.207-0.868-6.942-2.603c-3.471-3.471-2.603-9.546,0.868-12.149
			l60.746-52.068c3.471-3.471,8.678-2.603,12.149,0.868c3.471,3.471,2.603,9.546-0.868,12.149l-60.746,52.068
			C363.475,110.946,360.871,111.814,359.136,111.814z"/>
		<path style="fill:#FFDD09;" d="M272.356,467.61c-1.736,0-4.339-0.868-6.075-1.736l-60.746-52.068
			c-3.471-3.471-4.339-8.678-0.868-12.149c3.471-3.471,8.678-4.339,12.149-0.868l60.746,52.068
			c3.471,3.471,4.339,8.678,0.868,12.149C277.563,466.742,274.959,467.61,272.356,467.61z"/>
		<path style="fill:#FFDD09;" d="M98.797,467.61c-2.603,0-5.207-0.868-6.942-2.603c-3.471-3.471-2.603-8.678,0.868-12.149
			l60.746-52.068c3.471-3.471,9.546-2.603,12.149,0.868c3.471,3.471,2.603,8.678-0.868,12.149l-60.746,52.068
			C103.136,466.742,100.532,467.61,98.797,467.61z"/>
	</g>
	<path style="fill:#FFFFFF;" d="M72.763,302.729c0,14.753-11.281,26.034-26.034,26.034s-26.034-11.281-26.034-26.034
		c0-14.753,11.281-26.034,26.034-26.034S72.763,287.976,72.763,302.729"/>
	<path style="fill:#54C9FD;" d="M72.763,302.729c0,14.753-7.81,26.034-17.356,26.034s-17.356-11.281-17.356-26.034
		c0-14.753,7.81-26.034,17.356-26.034S72.763,287.976,72.763,302.729"/>
	<path style="fill:#33A9F8;" d="M255,476.288c0-14.753,11.281-26.034,26.034-26.034c14.753,0,26.034,11.281,26.034,26.034
		c0,14.753-11.281,26.034-26.034,26.034C266.281,502.322,255,491.041,255,476.288"/>
	<path style="fill:#54C9FD;" d="M255,476.288c0-14.753,7.81-26.034,17.356-26.034c9.546,0,17.356,11.281,17.356,26.034
		c0,14.753-7.81,26.034-17.356,26.034C262.81,502.322,255,491.041,255,476.288"/>
	<path style="fill:#33A9F8;" d="M402.525,33.712c0-14.753,11.281-26.034,26.034-26.034c14.753,0,26.034,11.281,26.034,26.034
		s-11.281,26.034-26.034,26.034C413.807,59.746,402.525,48.464,402.525,33.712"/>
	<path style="fill:#54C9FD;" d="M402.525,33.712c0-14.753,7.81-26.034,17.356-26.034s17.356,11.281,17.356,26.034
		s-7.81,26.034-17.356,26.034S402.525,48.464,402.525,33.712"/>
	<path style="fill:#33A9F8;" d="M185.576,33.712c0-14.753,11.281-26.034,26.034-26.034s26.034,11.281,26.034,26.034
		s-11.281,26.034-26.034,26.034S185.576,48.464,185.576,33.712"/>
	<path style="fill:#54C9FD;" d="M185.576,33.712c0-14.753,7.81-26.034,17.356-26.034s17.356,11.281,17.356,26.034
		s-7.81,26.034-17.356,26.034S185.576,48.464,185.576,33.712"/>
	<path style="fill:#FFFFFF;" d="M98.797,476.288c0,14.753-11.281,26.034-26.034,26.034s-26.034-11.281-26.034-26.034
		c0-14.753,11.281-26.034,26.034-26.034S98.797,461.536,98.797,476.288"/>
	<path style="fill:#54C9FD;" d="M98.797,476.288c0,14.753-7.81,26.034-17.356,26.034s-17.356-11.281-17.356-26.034
		c0-14.753,7.81-26.034,17.356-26.034S98.797,461.536,98.797,476.288"/>
	<path style="fill:#15A143;" d="M150.864,389.508c0-14.753,11.281-26.034,26.034-26.034s26.034,11.281,26.034,26.034
		c0,14.753-11.281,26.034-26.034,26.034S150.864,404.261,150.864,389.508"/>
	<path style="fill:#1CD759;" d="M150.864,389.508c0-14.753,7.81-26.034,17.356-26.034s17.356,11.281,17.356,26.034
		c0,14.753-7.81,26.034-17.356,26.034S150.864,404.261,150.864,389.508"/>
	<path style="fill:#15A143;" d="M298.39,276.695c0-14.753,11.281-26.034,26.034-26.034c14.753,0,26.034,11.281,26.034,26.034
		s-11.281,26.034-26.034,26.034C309.671,302.729,298.39,291.447,298.39,276.695"/>
	<path style="fill:#1CD759;" d="M298.39,276.695c0-14.753,7.81-26.034,17.356-26.034s17.356,11.281,17.356,26.034
		s-7.81,26.034-17.356,26.034S298.39,291.447,298.39,276.695"/>
	<path style="fill:#FFFFFF;" d="M81.441,103.136c0,19.092-15.62,34.712-34.712,34.712s-34.712-15.62-34.712-34.712
		s15.62-34.712,34.712-34.712S81.441,84.044,81.441,103.136"/>
	<path style="fill:#FFDD09;" d="M81.441,103.136c0,19.092-9.546,34.712-21.695,34.712s-21.695-15.62-21.695-34.712
		s9.546-34.712,21.695-34.712S81.441,84.044,81.441,103.136"/>
	<path style="fill:#FD9808;" d="M142.186,241.983c0-19.092,15.62-34.712,34.712-34.712s34.712,15.62,34.712,34.712
		s-15.62,34.712-34.712,34.712S142.186,261.075,142.186,241.983"/>
	<path style="fill:#FFDD09;" d="M142.186,241.983c0-19.092,9.546-34.712,21.695-34.712c12.149,0,21.695,15.62,21.695,34.712
		s-9.546,34.712-21.695,34.712C151.732,276.695,142.186,261.075,142.186,241.983"/>
	<path style="fill:#FD9808;" d="M289.712,120.492c0-19.092,15.62-34.712,34.712-34.712c19.092,0,34.712,15.62,34.712,34.712
		s-15.62,34.712-34.712,34.712C305.332,155.203,289.712,139.583,289.712,120.492"/>
	<path style="fill:#FFDD09;" d="M289.712,120.492c0-19.092,9.546-34.712,21.695-34.712c12.149,0,21.695,15.62,21.695,34.712
		s-9.546,34.712-21.695,34.712C299.258,155.203,289.712,139.583,289.712,120.492"/>
	<path style="fill:#FD9808;" d="M428.559,363.475c0-19.092,15.62-34.712,34.712-34.712c19.092,0,34.712,15.62,34.712,34.712
		s-15.62,34.712-34.712,34.712C444.18,398.186,428.559,382.566,428.559,363.475"/>
	<path style="fill:#FFDD09;" d="M428.559,363.475c0-19.092,9.546-34.712,21.695-34.712s21.695,15.62,21.695,34.712
		s-9.546,34.712-21.695,34.712S428.559,382.566,428.559,363.475"/>
	<path d="M176.898,285.373c-24.298,0-43.39-19.092-43.39-43.39s19.092-43.39,43.39-43.39s43.39,19.092,43.39,43.39
		S201.197,285.373,176.898,285.373z M176.898,215.949c-14.753,0-26.034,11.281-26.034,26.034s11.281,26.034,26.034,26.034
		s26.034-11.281,26.034-26.034S191.651,215.949,176.898,215.949z"/>
	<path d="M324.424,163.881c-24.298,0-43.39-19.092-43.39-43.39s19.092-43.39,43.39-43.39c24.298,0,43.39,19.092,43.39,43.39
		S348.722,163.881,324.424,163.881z M324.424,94.458c-14.753,0-26.034,11.281-26.034,26.034s11.281,26.034,26.034,26.034
		c14.753,0,26.034-11.281,26.034-26.034S339.176,94.458,324.424,94.458z"/>
	<path d="M463.271,406.864c-24.298,0-43.39-19.092-43.39-43.39s19.092-43.39,43.39-43.39c24.298,0,43.39,19.092,43.39,43.39
		S487.569,406.864,463.271,406.864z M463.271,337.441c-14.753,0-26.034,11.281-26.034,26.034c0,14.753,11.281,26.034,26.034,26.034
		c14.753,0,26.034-11.281,26.034-26.034C489.305,348.722,478.024,337.441,463.271,337.441z"/>
	<path d="M46.729,146.525c-24.298,0-43.39-19.092-43.39-43.39s19.092-43.39,43.39-43.39s43.39,19.092,43.39,43.39
		S71.027,146.525,46.729,146.525z M46.729,77.102c-14.753,0-26.034,11.281-26.034,26.034s11.281,26.034,26.034,26.034
		s26.034-11.281,26.034-26.034S61.481,77.102,46.729,77.102z"/>
	<path d="M176.898,424.22c-19.092,0-34.712-15.62-34.712-34.712c0-19.092,15.62-34.712,34.712-34.712s34.712,15.62,34.712,34.712
		C211.61,408.6,195.99,424.22,176.898,424.22z M176.898,372.153c-9.546,0-17.356,7.81-17.356,17.356s7.81,17.356,17.356,17.356
		c9.546,0,17.356-7.81,17.356-17.356S186.444,372.153,176.898,372.153z"/>
	<path d="M324.424,311.407c-19.092,0-34.712-15.62-34.712-34.712s15.62-34.712,34.712-34.712c19.092,0,34.712,15.62,34.712,34.712
		S343.515,311.407,324.424,311.407z M324.424,259.339c-9.546,0-17.356,7.81-17.356,17.356c0,9.546,7.81,17.356,17.356,17.356
		s17.356-7.81,17.356-17.356S333.969,259.339,324.424,259.339z"/>
	<path d="M46.729,337.441c-19.092,0-34.712-15.62-34.712-34.712c0-19.092,15.62-34.712,34.712-34.712s34.712,15.62,34.712,34.712
		C81.441,321.82,65.82,337.441,46.729,337.441z M46.729,285.373c-9.546,0-17.356,7.81-17.356,17.356s7.81,17.356,17.356,17.356
		s17.356-7.81,17.356-17.356S56.275,285.373,46.729,285.373z"/>
	<path d="M211.61,68.424c-19.092,0-34.712-15.62-34.712-34.712S192.519-1,211.61-1s34.712,15.62,34.712,34.712
		S230.702,68.424,211.61,68.424z M211.61,16.356c-9.546,0-17.356,7.81-17.356,17.356s7.81,17.356,17.356,17.356
		s17.356-7.81,17.356-17.356S221.156,16.356,211.61,16.356z"/>
	<rect x="168.22" y="276.695" width="17.356" height="95.458"/>
	<rect x="315.746" y="155.203" width="17.356" height="95.458"/>
	
		<rect x="250.671" y="205.548" transform="matrix(-0.2631 0.9648 -0.9648 -0.2631 573.6111 71.8932)" width="17.356" height="98.932"/>
	
		<rect x="103.434" y="114.297" transform="matrix(-0.7433 0.669 -0.669 -0.7433 311.0927 226.3683)" width="17.356" height="117.156"/>
	
		<rect x="68.466" y="259.558" transform="matrix(-0.8944 0.4472 -0.4472 -0.8944 322.8162 460.264)" width="77.232" height="17.355"/>
	
		<rect x="250.671" y="37.176" transform="matrix(-0.6508 0.7593 -0.7593 -0.6508 486.6642 -69.6482)" width="17.357" height="79.84"/>
	
		<rect x="385.546" y="260.859" transform="matrix(-0.5145 0.8575 -0.8575 -0.5145 864.2672 133.9116)" width="17.356" height="101.533"/>
	<path d="M428.559,68.424c-19.092,0-34.712-15.62-34.712-34.712S409.468-1,428.559-1s34.712,15.62,34.712,34.712
		S447.651,68.424,428.559,68.424z M428.559,16.356c-9.546,0-17.356,7.81-17.356,17.356s7.81,17.356,17.356,17.356
		s17.356-7.81,17.356-17.356S438.105,16.356,428.559,16.356z"/>
	
		<rect x="340.94" y="68.41" transform="matrix(-0.7595 0.6506 -0.6506 -0.7595 720.259 -112.1395)" width="79.842" height="17.357"/>
	<path d="M281.034,511c-19.092,0-34.712-15.62-34.712-34.712c0-19.092,15.62-34.712,34.712-34.712
		c19.092,0,34.712,15.62,34.712,34.712C315.746,495.38,300.125,511,281.034,511z M281.034,458.932
		c-9.546,0-17.356,7.81-17.356,17.356s7.81,17.356,17.356,17.356c9.546,0,17.356-7.81,17.356-17.356S290.58,458.932,281.034,458.932
		z"/>
	
		<rect x="224.636" y="392.97" transform="matrix(-0.6508 0.7593 -0.7593 -0.6508 713.8307 537.4551)" width="17.357" height="79.84"/>
	<path d="M72.763,511c-19.092,0-34.712-15.62-34.712-34.712c0-19.092,15.62-34.712,34.712-34.712s34.712,15.62,34.712,34.712
		C107.475,495.38,91.854,511,72.763,511z M72.763,458.932c-9.546,0-17.356,7.81-17.356,17.356s7.81,17.356,17.356,17.356
		s17.356-7.81,17.356-17.356S82.308,458.932,72.763,458.932z"/>
	
		<rect x="80.585" y="424.214" transform="matrix(-0.759 0.6511 -0.6511 -0.759 493.8195 682.9952)" width="79.838" height="17.356"/>
</g>
<g>
</g>
<g>
</g>
<g>
</g>
<g>
</g>
<g>
</g>
<g>
</g>
<g>
</g>
<g>
</g>
<g>
</g>
<g>
</g>
<g>
</g>
<g>
</g>
<g>
</g>
<g>
</g>
<g>
</g>
</svg>
